<svg width="82" height="96" viewBox="0 0 82 96" fill="none" xmlns="http://www.w3.org/2000/svg">
<path d="M37.2501 91.7499V75.4999H15.9905C14.7711 75.4999 13.6089 75.2659 12.5039 74.7979C11.3988 74.33 10.436 73.6858 9.61549 72.8653L1.66361 64.9134C0.759779 64.0096 0.307861 62.955 0.307861 61.7499C0.307861 60.5448 0.759779 59.4903 1.66361 58.5865L9.61549 50.6346C10.436 49.8141 11.3988 49.1699 12.5039 48.7019C13.6089 48.234 14.7711 48 15.9905 48H37.2501V38H8.01936C6.73895 38 5.66565 37.5689 4.79949 36.7068C3.93324 35.8446 3.50011 34.7613 3.50011 33.457V15.0431C3.50011 13.7389 3.93324 12.6557 4.79949 11.7935C5.66565 10.9313 6.73895 10.5001 8.01936 10.5001H37.2501V4.25012C37.2501 3.18762 37.6096 2.297 38.3286 1.57825C39.0477 0.859497 39.9387 0.500122 41.0016 0.500122C42.0646 0.500122 42.9551 0.859497 43.673 1.57825C44.3909 2.297 44.7499 3.18762 44.7499 4.25012V10.5001H66.0095C67.2289 10.5001 68.3911 10.7341 69.4961 11.2021C70.6012 11.67 71.564 12.3143 72.3845 13.1348L80.3364 21.0866C81.2402 21.9905 81.6921 23.045 81.6921 24.2501C81.6921 25.4552 81.2402 26.5097 80.3364 27.4135L72.3845 35.3654C71.564 36.1859 70.6012 36.8301 69.4961 37.2981C68.3911 37.766 67.2289 38 66.0095 38H44.7499V48H73.9806C75.261 48 76.3343 48.4311 77.2005 49.2933C78.0667 50.1554 78.4999 51.2387 78.4999 52.543V70.9569C78.4999 72.2611 78.0667 73.3443 77.2005 74.2065C76.3343 75.0688 75.261 75.4999 73.9806 75.4999H44.7499V91.7499C44.7499 92.8124 44.3904 93.703 43.6714 94.4218C42.9523 95.1405 42.0613 95.4999 40.9984 95.4999C39.9354 95.4999 39.0449 95.1405 38.327 94.4218C37.6091 93.703 37.2501 92.8124 37.2501 91.7499ZM11 30.5001H66.6826L72.9327 24.2501L66.6826 18H11V30.5001ZM15.3174 68H71V55.4999H15.3174L9.06724 61.7499L15.3174 68Z" fill="#1959FF"/>
</svg>
